<mxfile host="app.diagrams.net" modified="2023-11-23T15:38:12.848Z" agent="Mozilla/5.0 (Windows NT 10.0; Win64; x64) AppleWebKit/537.36 (KHTML, like Gecko) Chrome/119.0.0.0 Safari/537.36" etag="ZdhtcHMsw5dJ32ZUBH6B" version="22.1.3" type="device">
  <diagram name="Page-1" id="e7e014a7-5840-1c2e-5031-d8a46d1fe8dd">
    <mxGraphModel dx="1403" dy="1007" grid="1" gridSize="10" guides="1" tooltips="1" connect="1" arrows="1" fold="1" page="1" pageScale="1" pageWidth="1169" pageHeight="826" background="none" math="0" shadow="0">
      <root>
        <mxCell id="0" />
        <mxCell id="1" parent="0" />
        <mxCell id="38" value="" style="ellipse;shape=endState;fillColor=#000000;strokeColor=#ff0000" parent="1" vertex="1">
          <mxGeometry x="620" y="615" width="30" height="30" as="geometry" />
        </mxCell>
        <mxCell id="1WYkkOfF54EiBQ-RGIWu-43" style="edgeStyle=orthogonalEdgeStyle;rounded=0;orthogonalLoop=1;jettySize=auto;html=1;exitX=0.5;exitY=1;exitDx=0;exitDy=0;entryX=0.5;entryY=0;entryDx=0;entryDy=0;" edge="1" parent="1" source="5" target="1WYkkOfF54EiBQ-RGIWu-41">
          <mxGeometry relative="1" as="geometry" />
        </mxCell>
        <mxCell id="5" value="" style="ellipse;shape=startState;fillColor=#000000;strokeColor=#ff0000;" parent="1" vertex="1">
          <mxGeometry x="425" y="40" width="30" height="30" as="geometry" />
        </mxCell>
        <mxCell id="1WYkkOfF54EiBQ-RGIWu-55" style="edgeStyle=orthogonalEdgeStyle;rounded=0;orthogonalLoop=1;jettySize=auto;html=1;exitX=0.5;exitY=1;exitDx=0;exitDy=0;entryX=0.5;entryY=0;entryDx=0;entryDy=0;" edge="1" parent="1" source="1WYkkOfF54EiBQ-RGIWu-41" target="1WYkkOfF54EiBQ-RGIWu-44">
          <mxGeometry relative="1" as="geometry" />
        </mxCell>
        <mxCell id="1WYkkOfF54EiBQ-RGIWu-41" value="" style="rounded=0;whiteSpace=wrap;html=1;" vertex="1" parent="1">
          <mxGeometry x="380" y="130" width="120" height="60" as="geometry" />
        </mxCell>
        <mxCell id="1WYkkOfF54EiBQ-RGIWu-42" value="Authorization" style="text;html=1;strokeColor=none;fillColor=none;align=center;verticalAlign=middle;whiteSpace=wrap;rounded=0;" vertex="1" parent="1">
          <mxGeometry x="410" y="145" width="60" height="30" as="geometry" />
        </mxCell>
        <mxCell id="1WYkkOfF54EiBQ-RGIWu-49" style="edgeStyle=orthogonalEdgeStyle;rounded=0;orthogonalLoop=1;jettySize=auto;html=1;exitX=0.5;exitY=1;exitDx=0;exitDy=0;entryX=0.5;entryY=0;entryDx=0;entryDy=0;" edge="1" parent="1" source="1WYkkOfF54EiBQ-RGIWu-44" target="1WYkkOfF54EiBQ-RGIWu-46">
          <mxGeometry relative="1" as="geometry" />
        </mxCell>
        <mxCell id="1WYkkOfF54EiBQ-RGIWu-44" value="" style="rhombus;whiteSpace=wrap;html=1;" vertex="1" parent="1">
          <mxGeometry x="400" y="230" width="80" height="80" as="geometry" />
        </mxCell>
        <mxCell id="1WYkkOfF54EiBQ-RGIWu-48" style="edgeStyle=orthogonalEdgeStyle;rounded=0;orthogonalLoop=1;jettySize=auto;html=1;entryX=0.5;entryY=0;entryDx=0;entryDy=0;exitX=1;exitY=0.5;exitDx=0;exitDy=0;" edge="1" parent="1" source="1WYkkOfF54EiBQ-RGIWu-44" target="1WYkkOfF54EiBQ-RGIWu-47">
          <mxGeometry relative="1" as="geometry">
            <mxPoint x="485" y="270" as="sourcePoint" />
          </mxGeometry>
        </mxCell>
        <mxCell id="1WYkkOfF54EiBQ-RGIWu-45" value="&lt;font style=&quot;font-size: 10px;&quot;&gt;Is user registrated?&lt;/font&gt;" style="text;html=1;strokeColor=none;fillColor=none;align=center;verticalAlign=middle;whiteSpace=wrap;rounded=0;" vertex="1" parent="1">
          <mxGeometry x="410" y="255" width="60" height="30" as="geometry" />
        </mxCell>
        <mxCell id="1WYkkOfF54EiBQ-RGIWu-67" style="edgeStyle=orthogonalEdgeStyle;rounded=0;orthogonalLoop=1;jettySize=auto;html=1;exitX=0.5;exitY=1;exitDx=0;exitDy=0;entryX=0.5;entryY=0;entryDx=0;entryDy=0;" edge="1" parent="1" source="1WYkkOfF54EiBQ-RGIWu-46" target="1WYkkOfF54EiBQ-RGIWu-58">
          <mxGeometry relative="1" as="geometry" />
        </mxCell>
        <mxCell id="1WYkkOfF54EiBQ-RGIWu-46" value="" style="rounded=0;whiteSpace=wrap;html=1;" vertex="1" parent="1">
          <mxGeometry x="380" y="360" width="120" height="60" as="geometry" />
        </mxCell>
        <mxCell id="1WYkkOfF54EiBQ-RGIWu-70" style="edgeStyle=orthogonalEdgeStyle;rounded=0;orthogonalLoop=1;jettySize=auto;html=1;exitX=0;exitY=0.5;exitDx=0;exitDy=0;entryX=1;entryY=0.5;entryDx=0;entryDy=0;" edge="1" parent="1" source="1WYkkOfF54EiBQ-RGIWu-47" target="1WYkkOfF54EiBQ-RGIWu-46">
          <mxGeometry relative="1" as="geometry" />
        </mxCell>
        <mxCell id="1WYkkOfF54EiBQ-RGIWu-47" value="" style="rounded=0;whiteSpace=wrap;html=1;" vertex="1" parent="1">
          <mxGeometry x="575" y="360" width="120" height="60" as="geometry" />
        </mxCell>
        <mxCell id="1WYkkOfF54EiBQ-RGIWu-50" value="No" style="text;html=1;strokeColor=none;fillColor=none;align=center;verticalAlign=middle;whiteSpace=wrap;rounded=0;" vertex="1" parent="1">
          <mxGeometry x="465" y="240" width="60" height="30" as="geometry" />
        </mxCell>
        <mxCell id="1WYkkOfF54EiBQ-RGIWu-51" value="Yes" style="text;html=1;strokeColor=none;fillColor=none;align=center;verticalAlign=middle;whiteSpace=wrap;rounded=0;" vertex="1" parent="1">
          <mxGeometry x="425" y="300" width="60" height="30" as="geometry" />
        </mxCell>
        <mxCell id="1WYkkOfF54EiBQ-RGIWu-53" value="Log in" style="text;html=1;strokeColor=none;fillColor=none;align=center;verticalAlign=middle;whiteSpace=wrap;rounded=0;" vertex="1" parent="1">
          <mxGeometry x="410" y="375" width="60" height="30" as="geometry" />
        </mxCell>
        <mxCell id="1WYkkOfF54EiBQ-RGIWu-54" value="Sign up" style="text;html=1;strokeColor=none;fillColor=none;align=center;verticalAlign=middle;whiteSpace=wrap;rounded=0;" vertex="1" parent="1">
          <mxGeometry x="605" y="375" width="60" height="30" as="geometry" />
        </mxCell>
        <mxCell id="1WYkkOfF54EiBQ-RGIWu-66" style="edgeStyle=orthogonalEdgeStyle;rounded=0;orthogonalLoop=1;jettySize=auto;html=1;exitX=0.5;exitY=1;exitDx=0;exitDy=0;entryX=0.5;entryY=0;entryDx=0;entryDy=0;" edge="1" parent="1" source="1WYkkOfF54EiBQ-RGIWu-58" target="1WYkkOfF54EiBQ-RGIWu-64">
          <mxGeometry relative="1" as="geometry" />
        </mxCell>
        <mxCell id="1WYkkOfF54EiBQ-RGIWu-58" value="" style="rounded=0;whiteSpace=wrap;html=1;" vertex="1" parent="1">
          <mxGeometry x="380" y="480" width="120" height="60" as="geometry" />
        </mxCell>
        <mxCell id="1WYkkOfF54EiBQ-RGIWu-59" value="Choose option" style="text;html=1;strokeColor=none;fillColor=none;align=center;verticalAlign=middle;whiteSpace=wrap;rounded=0;" vertex="1" parent="1">
          <mxGeometry x="410" y="495" width="60" height="30" as="geometry" />
        </mxCell>
        <mxCell id="1WYkkOfF54EiBQ-RGIWu-68" style="edgeStyle=orthogonalEdgeStyle;rounded=0;orthogonalLoop=1;jettySize=auto;html=1;exitX=1;exitY=0.5;exitDx=0;exitDy=0;entryX=0;entryY=0.5;entryDx=0;entryDy=0;" edge="1" parent="1" source="1WYkkOfF54EiBQ-RGIWu-64" target="38">
          <mxGeometry relative="1" as="geometry" />
        </mxCell>
        <mxCell id="1WYkkOfF54EiBQ-RGIWu-64" value="" style="rounded=0;whiteSpace=wrap;html=1;" vertex="1" parent="1">
          <mxGeometry x="380" y="600" width="120" height="60" as="geometry" />
        </mxCell>
        <mxCell id="1WYkkOfF54EiBQ-RGIWu-65" value="Result" style="text;html=1;strokeColor=none;fillColor=none;align=center;verticalAlign=middle;whiteSpace=wrap;rounded=0;" vertex="1" parent="1">
          <mxGeometry x="410" y="615" width="60" height="30" as="geometry" />
        </mxCell>
      </root>
    </mxGraphModel>
  </diagram>
</mxfile>
